# xmcd
#
# Track frame offsets:
#	151
#	16420
#	25701
#	38982
#	53309
#	63432
#	90471
#	118724
#	131215
#	144042
#
# Disc length: 2131 seconds
#
# Revision: 1
# Processed by: cddbd v1.5.1PL0 Copyright (c) Steve Scherf et al.
# Submitted via: EasyCDDAExtractor 7.0.6.1
#
DISCID=7808510a
DTITLE=Various Artist - Cuba Social Club - Enrique Jorrin
DYEAR=1900
DGENRE=Blues
TTITLE0=Enrique Jorrín - Las clases del cha cha cha
TTITLE1=Orq. Casino de la Playa - Un golpecito sabroso
TTITLE2=Pérez Prado - mambo del ruletero
TTITLE3=Enrique Jorrín - El campesino
TTITLE4=Daniel Santos - Hay que saber perder
TTITLE5=Albita Rodríguez - Cantaré
TTITLE6=Son 14 - Que esta pasando con nuestro amor
TTITLE7=Enrique Jorrín - Yo se lo que tiene María
TTITLE8=Bienvenido Granda - En la orilla del mar
TTITLE9=Elena Burke - Delirio
EXTD=
EXTT0=
EXTT1=
EXTT2=
EXTT3=
EXTT4=
EXTT5=
EXTT6=
EXTT7=
EXTT8=
EXTT9=
PLAYORDER=
